<?xml version="1.0" encoding="UTF-8" standalone="no"?><!DOCTYPE svg PUBLIC "-//W3C//DTD SVG 1.1//EN" "http://www.w3.org/Graphics/SVG/1.1/DTD/svg11.dtd"><svg width="100%" height="100%" viewBox="0 0 985 820" version="1.1" xmlns="http://www.w3.org/2000/svg" xmlns:xlink="http://www.w3.org/1999/xlink" xml:space="preserve" xmlns:serif="http://www.serif.com/" style="fill-rule:evenodd;clip-rule:evenodd;stroke-linejoin:round;stroke-miterlimit:2;"><g><path d="M599.368,232.316c-99.994,-104.604 -265.853,-108.342 -370.457,-8.348c-104.534,99.926 -108.275,265.922 -8.349,370.456c99.926,104.534 265.922,108.275 370.457,8.349c2.397,-2.291 4.75,-4.628 7.058,-7.009l-52.671,-51.07c-1.662,1.714 -3.357,3.396 -5.082,5.046c-75.265,71.947 -194.782,69.254 -266.729,-6.011c-71.947,-75.265 -69.254,-194.782 6.011,-266.729c75.315,-71.995 194.734,-69.304 266.729,6.011l53.033,-50.695Z" style="fill:#2e1559;"/><path d="M529.228,197.865l-339.923,324.939l50.698,53.036l339.923,-324.939l-50.698,-53.036Z" style="fill:#2e1559;"/><g><path d="M675.147,203.979l257.491,257.49l51.88,-51.88l-257.49,-257.491l-51.881,51.881Z" style="fill:#2e1559;"/><path d="M726.273,667.834l257.49,-257.491l-51.88,-51.88l-257.49,257.491l51.88,51.88Z" style="fill:#2e1559;"/></g><path d="M699.856,120.076c-76.884,-76.883 -181.16,-120.076 -289.89,-120.076c-226.266,0 -409.966,183.7 -409.966,409.966c-0,226.267 183.7,409.966 409.966,409.966c108.73,0 213.006,-43.193 289.89,-120.076l-57.978,-57.978c-61.507,61.507 -144.928,96.061 -231.912,96.061c-181.013,-0 -327.973,-146.96 -327.973,-327.973c0,-181.013 146.96,-327.973 327.973,-327.973c86.984,0 170.405,34.554 231.912,96.061l57.978,-57.978Z" style="fill:#2e1559;"/></g></svg>